<?xml version="1.0" encoding="utf-8"?>
<!-- Generator: Adobe Illustrator 24.0.1, SVG Export Plug-In . SVG Version: 6.00 Build 0)  -->
<svg version="1.1" id="Layer_1" xmlns="http://www.w3.org/2000/svg" xmlns:xlink="http://www.w3.org/1999/xlink" x="0px" y="0px"
	 viewBox="0 0 24 24" style="enable-background:new 0 0 24 24;" xml:space="preserve">
<style type="text/css">
	.st0{fill:#FFFFFF;}
</style>
<path class="st0" d="M7,11.2c-1.1,0-2.1,0-3.2,0c-1.5,0-2.6-1.1-2.6-2.7c0-1.7,0-3.3,0-5c0-1.6,1.1-2.7,2.6-2.7c1.6,0,3.2,0,4.8,0
	c1.6,0,2.6,1.1,2.6,2.7c0,2.2,0,4.5,0,6.7c0,0.7-0.3,1-1,1C9.2,11.2,8.1,11.2,7,11.2z M6.5,9.4c0.9,0,1.9,0,2.8,0
	c0.2,0,0.2,0,0.2-0.3c0-1.9,0-3.8,0-5.8c0-0.6-0.3-1-0.9-1c-1.6,0-3.2,0-4.9,0c-0.6,0-0.9,0.3-0.9,1c0,1.7,0,3.4,0,5
	c0,0.6,0.3,1,0.9,1C4.7,9.4,5.6,9.4,6.5,9.4z"/>
<path class="st0" d="M7,12.9c1.1,0,2.2,0,3.3,0c0.6,0,0.9,0.4,0.9,1c0,2.3,0,4.5,0,6.8c0,1.6-1.1,2.7-2.6,2.7c-1.6,0-3.2,0-4.9,0
	c-1.5,0-2.6-1.1-2.6-2.7c0-1.7,0-3.4,0-5c0-1.6,1.1-2.7,2.6-2.7C4.8,12.9,5.9,12.9,7,12.9z M6.5,14.7c-0.9,0-1.8,0-2.8,0
	c-0.6,0-0.9,0.3-0.9,0.9c0,1.7,0,3.4,0,5.1c0,0.6,0.3,0.9,0.9,0.9c1.6,0,3.3,0,4.9,0c0.6,0,0.9-0.4,0.9-0.9c0-1.9,0-3.9,0-5.8
	c0-0.2-0.1-0.2-0.2-0.2C8.4,14.7,7.5,14.7,6.5,14.7z"/>
<path class="st0" d="M17.2,11.2c-1.1,0-2.2,0-3.3,0c-0.6,0-0.9-0.4-0.9-1c0-2.3,0-4.5,0-6.8c0-1.6,1.1-2.7,2.6-2.7
	c1.6,0,3.3,0,4.9,0c1.5,0,2.6,1.1,2.6,2.7c0,1.7,0,3.4,0,5c0,1.6-1.1,2.7-2.6,2.7C19.3,11.2,18.3,11.2,17.2,11.2z M14.6,6.3
	c0,1,0,2,0,2.9c0,0.2,0,0.3,0.2,0.3c1.9,0,3.7,0,5.6,0c0.6,0,0.9-0.4,0.9-0.9c0-1.7,0-3.4,0-5.1c0-0.6-0.3-0.9-0.9-0.9
	c-1.6,0-3.3,0-4.9,0c-0.6,0-0.9,0.4-0.9,1C14.6,4.4,14.6,5.3,14.6,6.3z"/>
<path class="st0" d="M18,12.9c2.8,0,5,2.4,5,5.2c0,2.9-2.3,5.2-5,5.2c-2.8,0-5-2.4-5-5.2C12.9,15.3,15.2,12.9,18,12.9z M17.9,21.7
	c1.9,0,3.4-1.6,3.4-3.5c0-1.9-1.5-3.5-3.3-3.5c-1.9,0-3.4,1.6-3.4,3.5C14.6,20.1,16.1,21.7,17.9,21.7z"/>
</svg>
